<?xml version="1.0" encoding="utf-8"?>
<!-- Generator: Adobe Illustrator 24.3.0, SVG Export Plug-In . SVG Version: 6.00 Build 0)  -->
<svg version="1.1" id="Capa_1" xmlns="http://www.w3.org/2000/svg" xmlns:xlink="http://www.w3.org/1999/xlink" x="0px" y="0px"
	 viewBox="0 0 84 85" style="enable-background:new 0 0 84 85;" xml:space="preserve">
<style type="text/css">
	.st0{fill:#096B60;}
	.st1{fill:#FFFFFF;}
	.st2{opacity:0.31;clip-path:url(#SVGID_2_);}
	.st3{fill:#3A3A3A;}
	.st4{opacity:0.9;}
	.st5{clip-path:url(#SVGID_4_);fill:#22684F;}
	.st6{fill:none;stroke:#F6AC0F;}
	.st7{fill:#1E6B4B;}
	.st8{fill:#20A477;}
	.st9{fill:#F6AC0F;}
	.st10{clip-path:url(#SVGID_6_);}
	.st11{fill:none;stroke:#F7AD10;stroke-width:4;stroke-miterlimit:10;}
	.st12{fill:#F59417;}
	.st13{fill:none;stroke:#FFFFFF;stroke-width:2;stroke-miterlimit:10;}
	.st14{fill:#F7AD16;}
	.st15{fill:#23684F;}
	.st16{fill:#65BC99;}
	.st17{fill:#F7AD10;}
	.st18{fill:#F4AD03;}
	.st19{fill:#E1E1E2;}
	.st20{fill:none;}
	.st21{opacity:0.15;clip-path:url(#SVGID_14_);}
	.st22{opacity:0.8;fill:#FFFFFF;}
	.st23{fill:#E6E6E6;}
	.st24{fill:#E6E6E6;stroke:#999999;stroke-width:0.5;stroke-miterlimit:10;}
	.st25{display:none;clip-path:url(#SVGID_16_);fill:#FFFFFF;}
	.st26{clip-path:url(#SVGID_16_);}
	.st27{fill:#FFE5CB;}
	.st28{fill:#E3C7AA;}
	.st29{fill:#22684F;}
	.st30{fill:#3A3E42;}
	.st31{fill:#3362A3;}
	.st32{fill:none;stroke:#3A3E42;stroke-miterlimit:10;}
	.st33{clip-path:url(#SVGID_18_);}
	.st34{fill:#31654D;}
	.st35{opacity:0.1;}
	.st36{clip-path:url(#SVGID_20_);fill:none;stroke:#214635;stroke-width:0.7779;stroke-miterlimit:10;}
	.st37{clip-path:url(#SVGID_20_);}
	.st38{clip-path:url(#SVGID_22_);fill:none;stroke:#214635;stroke-miterlimit:10;}
	.st39{clip-path:url(#SVGID_24_);fill:none;stroke:#214635;stroke-miterlimit:10;}
	.st40{clip-path:url(#SVGID_26_);fill:none;stroke:#214635;stroke-miterlimit:10;}
	.st41{clip-path:url(#SVGID_28_);}
	.st42{clip-path:url(#SVGID_30_);fill:none;stroke:#214635;stroke-miterlimit:10;}
	.st43{clip-path:url(#SVGID_32_);fill:none;stroke:#214635;stroke-miterlimit:10;}
	.st44{clip-path:url(#SVGID_28_);fill:none;stroke:#214635;stroke-width:0.7779;stroke-miterlimit:10;}
	.st45{clip-path:url(#SVGID_34_);fill:none;stroke:#214635;stroke-miterlimit:10;}
	.st46{fill:none;stroke:#214635;stroke-miterlimit:10;}
	.st47{fill:none;stroke:#214635;stroke-width:0.7779;stroke-miterlimit:10;}
	.st48{fill:none;stroke:#214635;stroke-width:0.7756;stroke-miterlimit:10;}
	.st49{fill:none;stroke:#214635;stroke-width:0.9038;stroke-miterlimit:10;}
	.st50{opacity:0.3;fill:none;stroke:#FFFFFF;stroke-width:0.9038;stroke-miterlimit:10;}
	.st51{fill:#4EA078;}
	.st52{fill:#E1A044;}
	.st53{fill:#214635;}
	.st54{fill:none;stroke:#31654D;stroke-width:0.3875;stroke-miterlimit:10;}
	.st55{fill:none;stroke:#31654D;stroke-width:0.5;stroke-miterlimit:10;}
	.st56{clip-path:url(#SVGID_36_);fill:none;stroke:#214635;stroke-width:0.7779;stroke-miterlimit:10;}
	.st57{clip-path:url(#SVGID_36_);}
	.st58{clip-path:url(#SVGID_38_);fill:none;stroke:#214635;stroke-miterlimit:10;}
	.st59{clip-path:url(#SVGID_40_);fill:none;stroke:#214635;stroke-miterlimit:10;}
	.st60{clip-path:url(#SVGID_42_);fill:none;stroke:#214635;stroke-miterlimit:10;}
	.st61{fill:none;stroke:#FFFFFF;stroke-miterlimit:10;}
	.st62{fill:none;stroke:#214635;stroke-width:0.9105;stroke-miterlimit:10;}
	.st63{clip-path:url(#SVGID_44_);}
	.st64{fill:none;stroke:#B3B3B3;stroke-width:0.7444;stroke-miterlimit:10;}
	.st65{fill:#008E7F;}
	.st66{clip-path:url(#SVGID_46_);}
	.st67{clip-path:url(#SVGID_48_);}
	.st68{clip-path:url(#SVGID_50_);}
	.st69{clip-path:url(#SVGID_52_);}
	.st70{opacity:0.65;fill:url(#SVGID_55_);}
	.st71{fill:none;stroke:#096B60;stroke-miterlimit:10;}
	.st72{fill:#F3AC02;}
	.st73{fill:none;stroke:#3A3A3A;stroke-width:2;stroke-miterlimit:10;}
	.st74{fill:#23A576;}
	.st75{clip-path:url(#SVGID_57_);}
	.st76{fill:#E8EBEE;}
	.st77{fill:#CDE4D3;}
	.st78{clip-path:url(#SVGID_59_);fill:#CDE4D3;}
	.st79{opacity:0.2;clip-path:url(#SVGID_59_);}
	.st80{clip-path:url(#SVGID_61_);}
	.st81{clip-path:url(#SVGID_63_);fill:#F0AF00;}
	
		.st82{clip-path:url(#SVGID_59_);fill:none;stroke:#C3C4CB;stroke-width:5.615;stroke-linecap:round;stroke-linejoin:round;stroke-miterlimit:10;}
	
		.st83{clip-path:url(#SVGID_59_);fill:none;stroke:#C3C4CB;stroke-width:2.807;stroke-linecap:round;stroke-linejoin:round;stroke-miterlimit:10;}
	
		.st84{clip-path:url(#SVGID_59_);fill:none;stroke:#C3C4CB;stroke-width:10.292;stroke-linecap:round;stroke-linejoin:round;stroke-miterlimit:10;}
	.st85{clip-path:url(#SVGID_65_);fill:none;stroke:#FFFFFF;stroke-width:2.475;stroke-linecap:round;stroke-linejoin:round;}
	.st86{fill:#D2E8E1;}
	.st87{clip-path:url(#SVGID_67_);fill:#176949;}
	.st88{clip-path:url(#SVGID_67_);fill-rule:evenodd;clip-rule:evenodd;fill:#F0AF00;}
	.st89{clip-path:url(#SVGID_69_);fill-rule:evenodd;clip-rule:evenodd;fill:#FFFFFF;}
	.st90{clip-path:url(#SVGID_69_);fill-rule:evenodd;clip-rule:evenodd;fill:#F0AF00;}
	.st91{clip-path:url(#SVGID_69_);fill:#0384C7;}
	.st92{clip-path:url(#SVGID_69_);fill:#176949;}
	
		.st93{clip-path:url(#SVGID_69_);fill:none;stroke:#C3C4CB;stroke-width:10.292;stroke-linecap:round;stroke-linejoin:round;stroke-miterlimit:10;}
	
		.st94{clip-path:url(#SVGID_69_);fill:none;stroke:#C3C4CB;stroke-width:5.615;stroke-linecap:round;stroke-linejoin:round;stroke-miterlimit:10;}
	
		.st95{clip-path:url(#SVGID_69_);fill:none;stroke:#C3C4CB;stroke-width:2.807;stroke-linecap:round;stroke-linejoin:round;stroke-miterlimit:10;}
	.st96{clip-path:url(#SVGID_71_);fill:none;stroke:#FFFFFF;stroke-width:2.475;stroke-linecap:round;stroke-linejoin:round;}
	.st97{clip-path:url(#SVGID_73_);fill:#176949;}
	.st98{clip-path:url(#SVGID_75_);fill:none;stroke:#FFFFFF;stroke-width:2.475;stroke-linecap:round;stroke-linejoin:round;}
	.st99{fill:none;stroke:#FFFFFF;stroke-width:2.475;stroke-linecap:round;stroke-linejoin:round;}
	.st100{clip-path:url(#SVGID_77_);fill:none;stroke:#FFFFFF;stroke-width:2.475;stroke-linecap:round;stroke-linejoin:round;}
	.st101{clip-path:url(#SVGID_79_);fill:none;stroke:#FFFFFF;stroke-width:2.475;stroke-linecap:round;stroke-linejoin:round;}
	.st102{clip-path:url(#SVGID_81_);fill:none;stroke:#FFFFFF;stroke-width:2.475;stroke-linecap:round;stroke-linejoin:round;}
	.st103{clip-path:url(#SVGID_83_);fill:none;stroke:#FFFFFF;stroke-width:2.475;stroke-linecap:round;stroke-linejoin:round;}
	.st104{clip-path:url(#SVGID_85_);fill:none;stroke:#FFFFFF;stroke-width:2.475;stroke-linecap:round;stroke-linejoin:round;}
	.st105{clip-path:url(#SVGID_87_);fill:none;stroke:#FFFFFF;stroke-width:2.475;stroke-linecap:round;stroke-linejoin:round;}
	.st106{clip-path:url(#SVGID_89_);fill:none;stroke:#FFFFFF;stroke-width:2.475;stroke-linecap:round;stroke-linejoin:round;}
	.st107{clip-path:url(#SVGID_91_);fill:none;stroke:#FFFFFF;stroke-width:2.475;stroke-linecap:round;stroke-linejoin:round;}
	.st108{clip-path:url(#SVGID_93_);fill:none;stroke:#FFFFFF;stroke-width:2.475;stroke-linecap:round;stroke-linejoin:round;}
	.st109{clip-path:url(#SVGID_95_);fill:none;stroke:#FFFFFF;stroke-width:2.475;stroke-linecap:round;stroke-linejoin:round;}
	.st110{clip-path:url(#SVGID_97_);fill:none;stroke:#FFFFFF;stroke-width:2.475;stroke-linecap:round;stroke-linejoin:round;}
	.st111{clip-path:url(#SVGID_99_);fill:none;stroke:#FFFFFF;stroke-width:2.475;stroke-linecap:round;stroke-linejoin:round;}
	.st112{clip-path:url(#SVGID_101_);fill:none;stroke:#FFFFFF;stroke-width:2.475;stroke-linecap:round;stroke-linejoin:round;}
	.st113{clip-path:url(#SVGID_103_);fill:none;stroke:#FFFFFF;stroke-width:2.475;stroke-linecap:round;stroke-linejoin:round;}
	.st114{clip-path:url(#SVGID_105_);fill:none;stroke:#FFFFFF;stroke-width:2.475;stroke-linecap:round;stroke-linejoin:round;}
	.st115{clip-path:url(#SVGID_107_);fill:none;stroke:#FFFFFF;stroke-width:2.475;stroke-linecap:round;stroke-linejoin:round;}
	.st116{clip-path:url(#SVGID_109_);fill:none;stroke:#FFFFFF;stroke-width:2.475;stroke-linecap:round;stroke-linejoin:round;}
	.st117{clip-path:url(#SVGID_111_);fill:none;stroke:#FFFFFF;stroke-width:2.475;stroke-linecap:round;stroke-linejoin:round;}
	.st118{fill:none;stroke:#FFFFFF;stroke-width:1.5;stroke-miterlimit:10;}
	.st119{clip-path:url(#SVGID_113_);fill:none;stroke:#FFFFFF;stroke-width:1.5;stroke-miterlimit:10;stroke-dasharray:4.502,4.502;}
	.st120{clip-path:url(#SVGID_113_);fill:none;stroke:#FFFFFF;stroke-width:1.5;stroke-miterlimit:10;stroke-dasharray:4.613,4.613;}
	.st121{clip-path:url(#SVGID_115_);fill:none;stroke:#FFFFFF;stroke-width:2.475;stroke-linecap:round;stroke-linejoin:round;}
	.st122{clip-path:url(#SVGID_117_);fill:none;stroke:#FFFFFF;stroke-width:2.475;stroke-linecap:round;stroke-linejoin:round;}
	.st123{clip-path:url(#SVGID_119_);fill:none;stroke:#FFFFFF;stroke-width:2.475;stroke-linecap:round;stroke-linejoin:round;}
	.st124{clip-path:url(#SVGID_121_);fill:none;stroke:#FFFFFF;stroke-width:2.475;stroke-linecap:round;stroke-linejoin:round;}
	.st125{clip-path:url(#SVGID_123_);fill:#005383;}
	.st126{fill:#CEE5D4;}
	.st127{clip-path:url(#SVGID_125_);fill:#22684F;}
	.st128{clip-path:url(#SVGID_127_);}
	.st129{opacity:0.15;clip-path:url(#SVGID_135_);}
	.st130{display:none;clip-path:url(#SVGID_137_);fill:#FFFFFF;}
	.st131{clip-path:url(#SVGID_137_);}
	.st132{clip-path:url(#SVGID_139_);}
	.st133{clip-path:url(#SVGID_141_);fill:none;stroke:#214635;stroke-width:0.7779;stroke-miterlimit:10;}
	.st134{clip-path:url(#SVGID_141_);}
	.st135{clip-path:url(#SVGID_143_);fill:none;stroke:#214635;stroke-miterlimit:10;}
	.st136{clip-path:url(#SVGID_145_);fill:none;stroke:#214635;stroke-miterlimit:10;}
	.st137{clip-path:url(#SVGID_147_);fill:none;stroke:#214635;stroke-miterlimit:10;}
	.st138{clip-path:url(#SVGID_149_);}
	.st139{clip-path:url(#SVGID_151_);fill:none;stroke:#214635;stroke-miterlimit:10;}
	.st140{clip-path:url(#SVGID_153_);fill:none;stroke:#214635;stroke-miterlimit:10;}
	.st141{clip-path:url(#SVGID_149_);fill:none;stroke:#214635;stroke-width:0.7779;stroke-miterlimit:10;}
	.st142{clip-path:url(#SVGID_155_);fill:none;stroke:#214635;stroke-miterlimit:10;}
	.st143{clip-path:url(#SVGID_157_);fill:none;stroke:#214635;stroke-width:0.7779;stroke-miterlimit:10;}
	.st144{clip-path:url(#SVGID_157_);}
	.st145{clip-path:url(#SVGID_159_);fill:none;stroke:#214635;stroke-miterlimit:10;}
	.st146{clip-path:url(#SVGID_161_);fill:none;stroke:#214635;stroke-miterlimit:10;}
	.st147{clip-path:url(#SVGID_163_);fill:none;stroke:#214635;stroke-miterlimit:10;}
	.st148{clip-path:url(#SVGID_165_);}
	.st149{clip-path:url(#SVGID_167_);fill:#CDE4D3;}
	.st150{opacity:0.2;clip-path:url(#SVGID_167_);}
	.st151{clip-path:url(#SVGID_169_);}
	.st152{clip-path:url(#SVGID_171_);fill:#F0AF00;}
	
		.st153{clip-path:url(#SVGID_167_);fill:none;stroke:#C3C4CB;stroke-width:5.615;stroke-linecap:round;stroke-linejoin:round;stroke-miterlimit:10;}
	
		.st154{clip-path:url(#SVGID_167_);fill:none;stroke:#C3C4CB;stroke-width:2.807;stroke-linecap:round;stroke-linejoin:round;stroke-miterlimit:10;}
	
		.st155{clip-path:url(#SVGID_167_);fill:none;stroke:#C3C4CB;stroke-width:10.292;stroke-linecap:round;stroke-linejoin:round;stroke-miterlimit:10;}
	.st156{clip-path:url(#SVGID_173_);fill:none;stroke:#FFFFFF;stroke-width:2.475;stroke-linecap:round;stroke-linejoin:round;}
	.st157{clip-path:url(#SVGID_175_);fill:#176949;}
	.st158{clip-path:url(#SVGID_175_);fill-rule:evenodd;clip-rule:evenodd;fill:#F0AF00;}
	.st159{clip-path:url(#SVGID_177_);fill-rule:evenodd;clip-rule:evenodd;fill:#FFFFFF;}
	.st160{clip-path:url(#SVGID_177_);fill-rule:evenodd;clip-rule:evenodd;fill:#F0AF00;}
	.st161{clip-path:url(#SVGID_177_);fill:#0384C7;}
	.st162{clip-path:url(#SVGID_177_);fill:#176949;}
	
		.st163{clip-path:url(#SVGID_177_);fill:none;stroke:#C3C4CB;stroke-width:10.292;stroke-linecap:round;stroke-linejoin:round;stroke-miterlimit:10;}
	
		.st164{clip-path:url(#SVGID_177_);fill:none;stroke:#C3C4CB;stroke-width:5.615;stroke-linecap:round;stroke-linejoin:round;stroke-miterlimit:10;}
	
		.st165{clip-path:url(#SVGID_177_);fill:none;stroke:#C3C4CB;stroke-width:2.807;stroke-linecap:round;stroke-linejoin:round;stroke-miterlimit:10;}
	.st166{clip-path:url(#SVGID_179_);fill:none;stroke:#FFFFFF;stroke-width:2.475;stroke-linecap:round;stroke-linejoin:round;}
	.st167{clip-path:url(#SVGID_181_);fill:#176949;}
	.st168{clip-path:url(#SVGID_183_);fill:none;stroke:#FFFFFF;stroke-width:2.475;stroke-linecap:round;stroke-linejoin:round;}
	.st169{clip-path:url(#SVGID_185_);fill:none;stroke:#FFFFFF;stroke-width:2.475;stroke-linecap:round;stroke-linejoin:round;}
	.st170{clip-path:url(#SVGID_187_);fill:none;stroke:#FFFFFF;stroke-width:2.475;stroke-linecap:round;stroke-linejoin:round;}
	.st171{clip-path:url(#SVGID_189_);fill:none;stroke:#FFFFFF;stroke-width:2.475;stroke-linecap:round;stroke-linejoin:round;}
	.st172{clip-path:url(#SVGID_191_);fill:none;stroke:#FFFFFF;stroke-width:2.475;stroke-linecap:round;stroke-linejoin:round;}
	.st173{clip-path:url(#SVGID_193_);fill:none;stroke:#FFFFFF;stroke-width:2.475;stroke-linecap:round;stroke-linejoin:round;}
	.st174{clip-path:url(#SVGID_195_);fill:none;stroke:#FFFFFF;stroke-width:2.475;stroke-linecap:round;stroke-linejoin:round;}
	.st175{clip-path:url(#SVGID_197_);fill:none;stroke:#FFFFFF;stroke-width:2.475;stroke-linecap:round;stroke-linejoin:round;}
	.st176{clip-path:url(#SVGID_199_);fill:none;stroke:#FFFFFF;stroke-width:2.475;stroke-linecap:round;stroke-linejoin:round;}
	.st177{clip-path:url(#SVGID_201_);fill:none;stroke:#FFFFFF;stroke-width:2.475;stroke-linecap:round;stroke-linejoin:round;}
	.st178{clip-path:url(#SVGID_203_);fill:none;stroke:#FFFFFF;stroke-width:2.475;stroke-linecap:round;stroke-linejoin:round;}
	.st179{clip-path:url(#SVGID_205_);fill:none;stroke:#FFFFFF;stroke-width:2.475;stroke-linecap:round;stroke-linejoin:round;}
	.st180{clip-path:url(#SVGID_207_);fill:none;stroke:#FFFFFF;stroke-width:2.475;stroke-linecap:round;stroke-linejoin:round;}
	.st181{clip-path:url(#SVGID_209_);fill:none;stroke:#FFFFFF;stroke-width:2.475;stroke-linecap:round;stroke-linejoin:round;}
	.st182{clip-path:url(#SVGID_211_);fill:none;stroke:#FFFFFF;stroke-width:2.475;stroke-linecap:round;stroke-linejoin:round;}
	.st183{clip-path:url(#SVGID_213_);fill:none;stroke:#FFFFFF;stroke-width:2.475;stroke-linecap:round;stroke-linejoin:round;}
	.st184{clip-path:url(#SVGID_215_);fill:none;stroke:#FFFFFF;stroke-width:2.475;stroke-linecap:round;stroke-linejoin:round;}
	.st185{clip-path:url(#SVGID_217_);fill:none;stroke:#FFFFFF;stroke-width:2.475;stroke-linecap:round;stroke-linejoin:round;}
	.st186{clip-path:url(#SVGID_219_);fill:none;stroke:#FFFFFF;stroke-width:2.475;stroke-linecap:round;stroke-linejoin:round;}
	.st187{clip-path:url(#SVGID_221_);fill:none;stroke:#FFFFFF;stroke-width:1.5;stroke-miterlimit:10;stroke-dasharray:4.502,4.502;}
	.st188{clip-path:url(#SVGID_221_);fill:none;stroke:#FFFFFF;stroke-width:1.5;stroke-miterlimit:10;stroke-dasharray:4.613,4.613;}
	.st189{clip-path:url(#SVGID_223_);fill:none;stroke:#FFFFFF;stroke-width:2.475;stroke-linecap:round;stroke-linejoin:round;}
	.st190{clip-path:url(#SVGID_225_);fill:none;stroke:#FFFFFF;stroke-width:2.475;stroke-linecap:round;stroke-linejoin:round;}
	.st191{clip-path:url(#SVGID_227_);fill:none;stroke:#FFFFFF;stroke-width:2.475;stroke-linecap:round;stroke-linejoin:round;}
	.st192{clip-path:url(#SVGID_229_);fill:none;stroke:#FFFFFF;stroke-width:2.475;stroke-linecap:round;stroke-linejoin:round;}
	.st193{clip-path:url(#SVGID_231_);fill:#005383;}
	.st194{opacity:0.65;fill:url(#SVGID_234_);}
	.st195{display:none;clip-path:url(#SVGID_236_);fill:#FFFFFF;}
	.st196{clip-path:url(#SVGID_236_);}
</style>
<g>
	<defs>
		<circle id="SVGID_235_" cx="42" cy="42.5" r="39.5"/>
	</defs>
	<use xlink:href="#SVGID_235_"  style="overflow:visible;fill:#FFFFFF;"/>
	<clipPath id="SVGID_2_">
		<use xlink:href="#SVGID_235_"  style="overflow:visible;"/>
	</clipPath>
	<circle style="display:none;clip-path:url(#SVGID_2_);fill:#FFFFFF;" cx="42" cy="42.5" r="39.5"/>
	<g style="clip-path:url(#SVGID_2_);">
		<path class="st1" d="M69.29,59.5c-1.69-1.69-6.7-5.88-16.81-8.5c-0.24-0.25-0.47-0.5-0.68-0.76c0.07-0.07,0.14-0.14,0.21-0.21
			c2.82-0.14,4.9-0.77,6.33-1.93c0.79-0.64,1.42-1.69,1.81-2.47c1.31-0.72,2.16-2.34,2.3-3.34c0,0,1.17-9.56,1.52-12.73
			c0.11-0.94-0.36-1.77-1.35-2.41C61.46,13.47,55.04,7.6,41.35,7.6c-6.8,0-11.78,1.72-15.23,5.26c-3.19,3.27-4.97,7.97-5.41,14.34
			c-1.09,0.64-1.63,1.51-1.52,2.51c0.35,3.17,1.52,12.73,1.52,12.76c0.18,1.28,1.59,3.66,3.66,3.66l0.23-0.01l1.97-0.27l0.24-0.1
			c0.36-0.15,0.69-0.31,0.98-0.47c1.09,1.87,2.39,3.57,3.83,4.98c-0.2,0.25-0.4,0.49-0.63,0.72C20.82,53.6,15.79,57.81,14.1,59.5
			c-4.1,4.1-3.77,10.77-3.5,17.34c0.06,1.37,0.11,2.8,0.11,3.98v1.95h61.97v-1.95c0-1.16,0.05-2.52,0.11-3.98
			C73.06,70.28,73.39,63.6,69.29,59.5z"/>
		<g>
			<g>
				<g>
					<g>
						<path class="st27" d="M42.59,75.85h-1.81L28,55.75l0.66-0.26c0.3-0.11,7.2-2.88,7.2-10.53v-0.58h11.65v0.58
							c0,7.67,7.13,10.5,7.2,10.53l0.66,0.26L42.59,75.85z"/>
						<path class="st28" d="M42.84,76.29h-2.29L27.33,55.53l1.17-0.45c0.28-0.11,6.92-2.76,6.92-10.11v-1.03h12.54v1.03
							c0,7.33,6.85,10.09,6.92,10.11l1.17,0.45L42.84,76.29z M41.03,75.4h1.32l12.37-19.43l-0.16-0.06
							c-0.07-0.03-7.49-2.94-7.49-10.94v-0.14H36.31v0.14c0,7.96-7.18,10.83-7.49,10.94l-0.16,0.06L41.03,75.4z"/>
					</g>
				</g>
				<g>
					<path class="st29" d="M67.56,61.23c-2.3-2.3-7.37-5.73-15.8-7.88c0,0-7.87,7.15-10.06,8.79c-2.19-1.64-10.06-8.79-10.06-8.79
						c-8.44,2.16-13.51,5.59-15.8,7.88c-4.15,4.15-2.68,14.83-2.68,21.09h57.08C70.23,76.06,71.71,65.38,67.56,61.23z"/>
					<path class="st29" d="M70.68,82.77H12.71v-0.45c0-1.21-0.06-2.59-0.12-4.06c-0.25-6.18-0.56-13.87,2.92-17.35
						c1.58-1.58,6.3-5.52,16.01-8l0.23-0.06l0.18,0.16c0.08,0.07,7.3,6.63,9.76,8.56c2.46-1.93,9.69-8.49,9.76-8.56l0.18-0.16
						l0.23,0.06c9.71,2.49,14.43,6.42,16.01,8c3.48,3.48,3.17,11.17,2.92,17.35c-0.06,1.47-0.11,2.85-0.11,4.06V82.77z"/>
				</g>
				<g>
					<g>
						<g>
							<g>
								<polygon class="st12" points="31.36,53.27 41.12,61.62 35.13,66.01 29.14,54.17 								"/>
							</g>
						</g>
					</g>
					<g>
						<g>
							<g>
								<polygon class="st12" points="52.1,53.27 42.34,61.62 48.33,66.01 54.32,54.17 								"/>
							</g>
						</g>
					</g>
				</g>
				<g>
					<g>
						<path class="st12" d="M39.97,68.43c0,0.72-0.58,1.3-1.3,1.3c-0.72,0-1.3-0.58-1.3-1.3c0-0.72,0.58-1.3,1.3-1.3
							C39.38,67.13,39.97,67.71,39.97,68.43z"/>
					</g>
					<g>
						<path class="st12" d="M39.97,73.3c0,0.72-0.58,1.3-1.3,1.3c-0.72,0-1.3-0.58-1.3-1.3c0-0.72,0.58-1.3,1.3-1.3
							C39.38,72,39.97,72.58,39.97,73.3z"/>
					</g>
					<g>
						<path class="st12" d="M39.97,78.17c0,0.72-0.58,1.3-1.3,1.3c-0.72,0-1.3-0.58-1.3-1.3c0-0.72,0.58-1.3,1.3-1.3
							C39.38,76.87,39.97,77.45,39.97,78.17z"/>
					</g>
				</g>
				<g>
					<rect x="54.2" y="68.01" class="st12" width="7.37" height="3.96"/>
				</g>
				<g>
					<rect x="40.63" y="61.19" class="st12" width="2.01" height="21.13"/>
				</g>
			</g>
			<g>
				<path class="st30" d="M58.3,29.48c-1.62-11.91-5.49-16.77-16.89-16.77c-9.4,0-14.71,4.86-16.32,16.77
					c-2.03,14.93,9.01-4.3,16.61-4.3C49.63,25.18,60.32,44.4,58.3,29.48z"/>
			</g>
			<g>
				<path class="st27" d="M56.53,33.67c0.01-0.19,0.01-0.38,0.01-0.57c0-9.01-6.65-13.98-14.86-13.98
					c-8.21,0-14.86,4.97-14.86,13.98c0,0.19,0.01,0.38,0.01,0.58c-0.84,0.37-1.46,1.53-1.46,2.92c0,1.69,0.91,3.06,2.04,3.06
					c0.16,0,0.32-0.04,0.47-0.09c2.19,6.82,7.54,12.77,13.8,12.77c6.26,0,11.61-5.95,13.8-12.77c0.15,0.06,0.31,0.09,0.48,0.09
					c1.13,0,2.04-1.37,2.04-3.06C58.01,35.2,57.38,34.04,56.53,33.67z"/>
				<path class="st28" d="M41.69,52.78c-6.75,0-11.98-6.5-14.09-12.68c-1.48,0.15-2.66-1.45-2.66-3.5c0-1.39,0.57-2.62,1.46-3.18
					c0-0.11,0-0.21,0-0.31c0-8.63,6.15-14.43,15.3-14.43c9.15,0,15.3,5.8,15.3,14.43c0,0.1,0,0.21,0,0.31
					c0.89,0.55,1.47,1.79,1.47,3.19c0,2.05-1.18,3.66-2.67,3.49C53.67,46.28,48.43,52.78,41.69,52.78z M28.17,38.99l0.14,0.44
					c1.92,6,6.93,12.46,13.37,12.46c6.44,0,11.45-6.46,13.38-12.46l0.14-0.44l0.43,0.16c0.13,0.05,0.23,0.07,0.33,0.07
					c0.87,0,1.59-1.2,1.59-2.61c0-1.17-0.5-2.21-1.21-2.52l-0.28-0.12l0.01-0.3c0.01-0.19-0.02-0.37,0.01-0.56
					c1.64-10.04-7.24-13.54-14.41-13.54c-7.17,0-16.91,3.8-14.41,13.54c0.04,0.16,0.01,0.33,0.01,0.5l0.01,0.3l-0.27,0.19
					c-0.71,0.31-1.2,1.35-1.2,2.51c0,1.42,0.73,2.61,1.59,2.61c0.09,0,0.2-0.02,0.32-0.06L28.17,38.99z"/>
			</g>
			<g>
				<path class="st30" d="M56.41,27.08c0,0-18.24,1.68-21.43-5.73c0,0-8.27,7.07-8.44,9.55c0,0-1.75-14.91,14.84-14.91
					C56.3,15.98,56.41,27.08,56.41,27.08z"/>
			</g>
			<g>
				<path class="st31" d="M60.69,28.46C59.87,14.93,54.31,9.6,41.35,9.6c-6.23,0-10.74,1.52-13.8,4.65
					c-3.03,3.1-4.64,7.79-4.92,14.28c-0.86,0.27-1.49,0.73-1.46,0.96c0.35,3.17,1.52,12.71,1.52,12.71
					c0.08,0.59,0.96,2.04,1.76,1.93l0.37-0.05l1.21-0.17c0,0,1.78-0.73,1.7-1.32l-1.71-13.68c0,0-0.78-0.41-1.68-0.54
					c0.28-5.93,1.74-10.17,4.43-12.93c2.72-2.79,6.84-4.14,12.58-4.14c11.85,0,16.81,4.64,17.63,16.92
					c-0.98,0.1-1.87,0.56-1.87,0.56l-1.71,13.68c-0.08,0.59,0.51,1.16,1.32,1.27l0.37,0.05c-0.08,0.77-0.26,1.39-0.81,1.83
					c-1.2,0.98-4.15,1.58-9.22,1l0-0.04c0.08-0.58-0.23-1.11-0.69-1.17l-4.58-0.63c-0.46-0.06-0.9,0.36-0.98,0.94l-0.15,1.06
					c-0.08,0.59,0.23,1.11,0.69,1.18l4.58,0.63c0.4,0.06,0.78-0.28,0.92-0.76c5.6,0.65,8.68-0.03,10.19-1.26
					c0.88-0.71,1.13-1.65,1.25-2.62l0.37,0.05c0.81,0.11,1.68-1.34,1.76-1.93c0,0,1.16-9.54,1.52-12.71
					C61.99,29.14,61.45,28.73,60.69,28.46z"/>
			</g>
			<path class="st32" d="M30.1,34.98c0,0,0.72-2.35,5.03-2.24c3.88,0.09,4.28,1.78,4.28,1.78"/>
			<path class="st32" d="M44.29,34.64c0,0,0.89-2.29,5.18-1.88c3.86,0.37,4.14,2.08,4.14,2.08"/>
		</g>
	</g>
	<use xlink:href="#SVGID_235_"  style="overflow:visible;fill:none;stroke:#114A44;stroke-miterlimit:10;"/>
</g>
</svg>
