<?xml version="1.0" encoding="utf-8"?>
<!-- Generator: Adobe Illustrator 24.3.0, SVG Export Plug-In . SVG Version: 6.00 Build 0)  -->
<svg version="1.1" id="Capa_1" xmlns="http://www.w3.org/2000/svg" xmlns:xlink="http://www.w3.org/1999/xlink" x="0px" y="0px"
	 viewBox="0 0 514 66" style="enable-background:new 0 0 514 66;" xml:space="preserve">
<style type="text/css">
	.st0{fill:#EAF6FB;}
	.st1{opacity:0.1;clip-path:url(#SVGID_2_);}
	.st2{clip-path:url(#SVGID_4_);fill:#36506A;}
	.st3{opacity:0.08;clip-path:url(#SVGID_6_);}
	.st4{clip-path:url(#SVGID_8_);}
	.st5{clip-path:url(#SVGID_10_);fill:none;stroke:#36506A;stroke-width:1.913;stroke-miterlimit:10;}
	
		.st6{clip-path:url(#SVGID_12_);fill:none;stroke:#999999;stroke-width:0.478;stroke-linecap:round;stroke-linejoin:round;stroke-miterlimit:10;}
	.st7{fill:none;stroke:#999999;stroke-width:0.478;stroke-linecap:round;stroke-linejoin:round;stroke-miterlimit:10;}
	
		.st8{clip-path:url(#SVGID_14_);fill:none;stroke:#999999;stroke-width:0.478;stroke-linecap:round;stroke-linejoin:round;stroke-miterlimit:10;}
	
		.st9{clip-path:url(#SVGID_16_);fill:none;stroke:#999999;stroke-width:0.478;stroke-linecap:round;stroke-linejoin:round;stroke-miterlimit:10;}
	
		.st10{clip-path:url(#SVGID_18_);fill:none;stroke:#999999;stroke-width:0.478;stroke-linecap:round;stroke-linejoin:round;stroke-miterlimit:10;}
	
		.st11{clip-path:url(#SVGID_20_);fill:none;stroke:#999999;stroke-width:0.478;stroke-linecap:round;stroke-linejoin:round;stroke-miterlimit:10;}
	
		.st12{clip-path:url(#SVGID_22_);fill:none;stroke:#999999;stroke-width:0.478;stroke-linecap:round;stroke-linejoin:round;stroke-miterlimit:10;}
	.st13{opacity:0.2;clip-path:url(#SVGID_22_);}
	.st14{clip-path:url(#SVGID_24_);fill:#CCCCCC;}
	.st15{clip-path:url(#SVGID_26_);}
	.st16{clip-path:url(#SVGID_28_);fill:#B3B3B3;}
	.st17{clip-path:url(#SVGID_30_);}
	.st18{clip-path:url(#SVGID_32_);fill:#F39235;}
	.st19{fill:none;stroke:#36506A;stroke-width:3.826;stroke-linejoin:round;stroke-miterlimit:10;}
	.st20{clip-path:url(#SVGID_34_);fill:#EE9D27;}
	.st21{clip-path:url(#SVGID_36_);fill:#36506A;}
	.st22{opacity:0.2;clip-path:url(#SVGID_36_);}
	.st23{clip-path:url(#SVGID_38_);}
	.st24{clip-path:url(#SVGID_40_);fill:#F39235;}
	.st25{clip-path:url(#SVGID_42_);}
	.st26{clip-path:url(#SVGID_44_);fill-rule:evenodd;clip-rule:evenodd;fill:#F39235;}
	.st27{clip-path:url(#SVGID_46_);}
	.st28{clip-path:url(#SVGID_48_);fill:#F39235;}
	.st29{clip-path:url(#SVGID_50_);}
	.st30{clip-path:url(#SVGID_52_);fill:#F39235;}
	.st31{fill:none;stroke:#EE9D27;stroke-width:1.913;stroke-miterlimit:10;}
	.st32{fill:none;stroke:#EE9D27;stroke-width:1.563;stroke-miterlimit:10;}
	.st33{fill:#EE9D27;}
	.st34{fill:none;stroke:#999999;stroke-width:0.956;stroke-linecap:round;stroke-linejoin:round;stroke-miterlimit:10;}
	.st35{opacity:0.2;}
	.st36{fill:#F39235;}
	.st37{fill:#CCCCCC;}
	.st38{fill:#36506A;}
	.st39{clip-path:url(#SVGID_54_);}
	.st40{filter:url(#Adobe_OpacityMaskFilter);}
	.st41{mask:url(#SVGID_55_);}
	.st42{opacity:0.75;clip-path:url(#SVGID_59_);fill:#FFFFFF;}
	.st43{filter:url(#Adobe_OpacityMaskFilter_1_);}
	.st44{mask:url(#SVGID_60_);}
	.st45{opacity:0.75;clip-path:url(#SVGID_64_);fill:#FFFFFF;}
	.st46{fill:none;stroke:#36506A;stroke-width:4;stroke-linecap:round;stroke-linejoin:round;}
	.st47{opacity:0.2;clip-path:url(#SVGID_54_);}
	.st48{fill:#3A3A3A;}
	.st49{fill:#FFFFFF;}
	.st50{fill:#006D60;}
	.st51{fill:#FFA800;}
	.st52{fill:none;}
	.st53{fill:none;stroke:#FFFFFF;stroke-width:2;stroke-miterlimit:10;}
	.st54{opacity:0.15;clip-path:url(#SVGID_66_);}
	.st55{opacity:0.8;fill:#FFFFFF;}
	.st56{fill:#E5E5E5;}
	.st57{fill:#E5E5E5;stroke:#989898;stroke-width:0.5;stroke-miterlimit:10;}
	.st58{display:none;clip-path:url(#SVGID_68_);fill:#FFFFFF;}
	.st59{clip-path:url(#SVGID_68_);}
	.st60{fill:#FFE3C7;}
	.st61{fill:#E8C5A5;}
	.st62{fill:#006A4D;}
	.st63{fill:#FF8D00;}
	.st64{fill:#393E42;}
	.st65{fill:#1E63A7;}
	.st66{fill:none;stroke:#393E42;stroke-miterlimit:10;}
	.st67{fill:#E0E0E1;}
	.st68{fill:#FFA700;}
	.st69{fill:none;stroke:#3A3A3A;stroke-width:2;stroke-miterlimit:10;}
	.st70{display:none;clip-path:url(#SVGID_70_);}
	.st71{display:inline;}
	.st72{fill:#E6EAED;}
	.st73{fill:#C6E4D1;}
	.st74{clip-path:url(#SVGID_72_);fill:#C6E4D1;}
	.st75{opacity:0.2;clip-path:url(#SVGID_72_);}
	.st76{clip-path:url(#SVGID_74_);}
	.st77{clip-path:url(#SVGID_76_);fill:#FBAB00;}
	
		.st78{clip-path:url(#SVGID_72_);fill:none;stroke:#C2C3CB;stroke-width:5.615;stroke-linecap:round;stroke-linejoin:round;stroke-miterlimit:10;}
	
		.st79{clip-path:url(#SVGID_72_);fill:none;stroke:#C2C3CB;stroke-width:2.807;stroke-linecap:round;stroke-linejoin:round;stroke-miterlimit:10;}
	
		.st80{clip-path:url(#SVGID_72_);fill:none;stroke:#C2C3CB;stroke-width:10.292;stroke-linecap:round;stroke-linejoin:round;stroke-miterlimit:10;}
	.st81{clip-path:url(#SVGID_78_);fill:none;stroke:#FFFFFF;stroke-width:2.475;stroke-linecap:round;stroke-linejoin:round;}
	.st82{fill:#CCE8E0;}
	.st83{clip-path:url(#SVGID_80_);fill:#006B46;}
	.st84{clip-path:url(#SVGID_80_);fill-rule:evenodd;clip-rule:evenodd;fill:#FBAB00;}
	.st85{clip-path:url(#SVGID_82_);fill-rule:evenodd;clip-rule:evenodd;fill:#FFFFFF;}
	.st86{clip-path:url(#SVGID_82_);fill-rule:evenodd;clip-rule:evenodd;fill:#FBAB00;}
	.st87{clip-path:url(#SVGID_82_);fill:#0086CC;}
	.st88{clip-path:url(#SVGID_82_);fill:#006B46;}
	
		.st89{clip-path:url(#SVGID_82_);fill:none;stroke:#C2C3CB;stroke-width:10.292;stroke-linecap:round;stroke-linejoin:round;stroke-miterlimit:10;}
	
		.st90{clip-path:url(#SVGID_82_);fill:none;stroke:#C2C3CB;stroke-width:5.615;stroke-linecap:round;stroke-linejoin:round;stroke-miterlimit:10;}
	
		.st91{clip-path:url(#SVGID_82_);fill:none;stroke:#C2C3CB;stroke-width:2.807;stroke-linecap:round;stroke-linejoin:round;stroke-miterlimit:10;}
	.st92{clip-path:url(#SVGID_84_);fill:none;stroke:#FFFFFF;stroke-width:2.475;stroke-linecap:round;stroke-linejoin:round;}
	.st93{clip-path:url(#SVGID_86_);fill:#006B46;}
	.st94{clip-path:url(#SVGID_88_);fill:none;stroke:#FFFFFF;stroke-width:2.475;stroke-linecap:round;stroke-linejoin:round;}
	.st95{fill:none;stroke:#FFFFFF;stroke-width:2.475;stroke-linecap:round;stroke-linejoin:round;}
	.st96{clip-path:url(#SVGID_90_);fill:none;stroke:#FFFFFF;stroke-width:2.475;stroke-linecap:round;stroke-linejoin:round;}
	.st97{clip-path:url(#SVGID_92_);fill:none;stroke:#FFFFFF;stroke-width:2.475;stroke-linecap:round;stroke-linejoin:round;}
	.st98{clip-path:url(#SVGID_94_);fill:none;stroke:#FFFFFF;stroke-width:2.475;stroke-linecap:round;stroke-linejoin:round;}
	.st99{clip-path:url(#SVGID_96_);fill:none;stroke:#FFFFFF;stroke-width:2.475;stroke-linecap:round;stroke-linejoin:round;}
	.st100{clip-path:url(#SVGID_98_);fill:none;stroke:#FFFFFF;stroke-width:2.475;stroke-linecap:round;stroke-linejoin:round;}
	.st101{clip-path:url(#SVGID_100_);fill:none;stroke:#FFFFFF;stroke-width:2.475;stroke-linecap:round;stroke-linejoin:round;}
	.st102{clip-path:url(#SVGID_102_);fill:none;stroke:#FFFFFF;stroke-width:2.475;stroke-linecap:round;stroke-linejoin:round;}
	.st103{clip-path:url(#SVGID_104_);fill:none;stroke:#FFFFFF;stroke-width:2.475;stroke-linecap:round;stroke-linejoin:round;}
	.st104{clip-path:url(#SVGID_106_);fill:none;stroke:#FFFFFF;stroke-width:2.475;stroke-linecap:round;stroke-linejoin:round;}
	.st105{clip-path:url(#SVGID_108_);fill:none;stroke:#FFFFFF;stroke-width:2.475;stroke-linecap:round;stroke-linejoin:round;}
	.st106{clip-path:url(#SVGID_110_);fill:none;stroke:#FFFFFF;stroke-width:2.475;stroke-linecap:round;stroke-linejoin:round;}
	.st107{clip-path:url(#SVGID_112_);fill:none;stroke:#FFFFFF;stroke-width:2.475;stroke-linecap:round;stroke-linejoin:round;}
	.st108{clip-path:url(#SVGID_114_);fill:none;stroke:#FFFFFF;stroke-width:2.475;stroke-linecap:round;stroke-linejoin:round;}
	.st109{clip-path:url(#SVGID_116_);fill:none;stroke:#FFFFFF;stroke-width:2.475;stroke-linecap:round;stroke-linejoin:round;}
	.st110{clip-path:url(#SVGID_118_);fill:none;stroke:#FFFFFF;stroke-width:2.475;stroke-linecap:round;stroke-linejoin:round;}
	.st111{clip-path:url(#SVGID_120_);fill:none;stroke:#FFFFFF;stroke-width:2.475;stroke-linecap:round;stroke-linejoin:round;}
	.st112{clip-path:url(#SVGID_122_);fill:none;stroke:#FFFFFF;stroke-width:2.475;stroke-linecap:round;stroke-linejoin:round;}
	.st113{clip-path:url(#SVGID_124_);fill:none;stroke:#FFFFFF;stroke-width:2.475;stroke-linecap:round;stroke-linejoin:round;}
	.st114{fill:none;stroke:#FFFFFF;stroke-width:1.5;stroke-miterlimit:10;}
	.st115{clip-path:url(#SVGID_126_);fill:none;stroke:#FFFFFF;stroke-width:1.5;stroke-miterlimit:10;stroke-dasharray:4.502,4.502;}
	.st116{clip-path:url(#SVGID_126_);fill:none;stroke:#FFFFFF;stroke-width:1.5;stroke-miterlimit:10;stroke-dasharray:4.613,4.613;}
	.st117{clip-path:url(#SVGID_128_);fill:none;stroke:#FFFFFF;stroke-width:2.475;stroke-linecap:round;stroke-linejoin:round;}
	.st118{clip-path:url(#SVGID_130_);fill:none;stroke:#FFFFFF;stroke-width:2.475;stroke-linecap:round;stroke-linejoin:round;}
	.st119{clip-path:url(#SVGID_132_);fill:none;stroke:#FFFFFF;stroke-width:2.475;stroke-linecap:round;stroke-linejoin:round;}
	.st120{clip-path:url(#SVGID_134_);fill:none;stroke:#FFFFFF;stroke-width:2.475;stroke-linecap:round;stroke-linejoin:round;}
	.st121{clip-path:url(#SVGID_136_);fill:#005586;}
	.st122{fill:#C7E5D2;}
	.st123{clip-path:url(#SVGID_70_);}
	.st124{fill:#E9EBEE;}
	.st125{fill:#F29134;}
	.st126{clip-path:url(#SVGID_138_);fill:#CEE5D4;}
	
		.st127{clip-path:url(#SVGID_140_);fill:none;stroke:#C3C4CA;stroke-width:5.615;stroke-linecap:round;stroke-linejoin:round;stroke-miterlimit:10;}
	.st128{fill:none;stroke:#C3C4CA;stroke-width:5.615;stroke-linecap:round;stroke-linejoin:round;stroke-miterlimit:10;}
	
		.st129{clip-path:url(#SVGID_142_);fill:none;stroke:#C3C4CA;stroke-width:5.615;stroke-linecap:round;stroke-linejoin:round;stroke-miterlimit:10;}
	
		.st130{clip-path:url(#SVGID_144_);fill:none;stroke:#C3C4CA;stroke-width:5.615;stroke-linecap:round;stroke-linejoin:round;stroke-miterlimit:10;}
	
		.st131{clip-path:url(#SVGID_146_);fill:none;stroke:#C3C4CA;stroke-width:5.615;stroke-linecap:round;stroke-linejoin:round;stroke-miterlimit:10;}
	
		.st132{clip-path:url(#SVGID_148_);fill:none;stroke:#C3C4CA;stroke-width:5.615;stroke-linecap:round;stroke-linejoin:round;stroke-miterlimit:10;}
	
		.st133{clip-path:url(#SVGID_150_);fill:none;stroke:#C3C4CA;stroke-width:5.615;stroke-linecap:round;stroke-linejoin:round;stroke-miterlimit:10;}
	
		.st134{clip-path:url(#SVGID_150_);fill:none;stroke:#C3C4CA;stroke-width:10.292;stroke-linecap:round;stroke-linejoin:round;stroke-miterlimit:10;}
	
		.st135{clip-path:url(#SVGID_152_);fill:none;stroke:#C3C4CA;stroke-width:5.615;stroke-linecap:round;stroke-linejoin:round;stroke-miterlimit:10;}
	
		.st136{clip-path:url(#SVGID_154_);fill:none;stroke:#C3C4CA;stroke-width:5.615;stroke-linecap:round;stroke-linejoin:round;stroke-miterlimit:10;}
	
		.st137{clip-path:url(#SVGID_154_);fill:none;stroke:#C3C4CA;stroke-width:10.292;stroke-linecap:round;stroke-linejoin:round;stroke-miterlimit:10;}
	
		.st138{clip-path:url(#SVGID_156_);fill:none;stroke:#C3C4CA;stroke-width:5.615;stroke-linecap:round;stroke-linejoin:round;stroke-miterlimit:10;}
	
		.st139{clip-path:url(#SVGID_158_);fill:none;stroke:#C3C4CA;stroke-width:5.615;stroke-linecap:round;stroke-linejoin:round;stroke-miterlimit:10;}
	
		.st140{clip-path:url(#SVGID_160_);fill:none;stroke:#C3C4CA;stroke-width:5.615;stroke-linecap:round;stroke-linejoin:round;stroke-miterlimit:10;}
	
		.st141{clip-path:url(#SVGID_162_);fill:none;stroke:#C3C4CA;stroke-width:5.615;stroke-linecap:round;stroke-linejoin:round;stroke-miterlimit:10;}
	
		.st142{clip-path:url(#SVGID_162_);fill:none;stroke:#C3C4CA;stroke-width:10.292;stroke-linecap:round;stroke-linejoin:round;stroke-miterlimit:10;}
	
		.st143{clip-path:url(#SVGID_164_);fill:none;stroke:#C3C4CA;stroke-width:5.615;stroke-linecap:round;stroke-linejoin:round;stroke-miterlimit:10;}
	
		.st144{clip-path:url(#SVGID_166_);fill:none;stroke:#C3C4CA;stroke-width:11.999;stroke-linecap:round;stroke-linejoin:round;stroke-miterlimit:10;}
	.st145{clip-path:url(#SVGID_168_);fill:none;stroke:#FFFFFF;stroke-width:2.475;stroke-linecap:round;stroke-linejoin:round;}
	.st146{clip-path:url(#SVGID_170_);fill:none;stroke:#FFFFFF;stroke-width:2.475;stroke-linecap:round;stroke-linejoin:round;}
	.st147{clip-path:url(#SVGID_172_);fill:none;stroke:#FFFFFF;stroke-width:2.475;stroke-linecap:round;stroke-linejoin:round;}
	.st148{clip-path:url(#SVGID_174_);fill:none;stroke:#FFFFFF;stroke-width:2.475;stroke-linecap:round;stroke-linejoin:round;}
	.st149{clip-path:url(#SVGID_176_);fill:#36506A;}
	.st150{clip-path:url(#SVGID_178_);fill:none;stroke:#FFFFFF;stroke-width:2.475;stroke-linecap:round;stroke-linejoin:round;}
	.st151{clip-path:url(#SVGID_180_);fill:none;stroke:#FFFFFF;stroke-width:2.475;stroke-linecap:round;stroke-linejoin:round;}
	.st152{clip-path:url(#SVGID_182_);fill:#36506A;}
	.st153{clip-path:url(#SVGID_182_);fill-rule:evenodd;clip-rule:evenodd;fill:#36506A;}
	.st154{clip-path:url(#SVGID_184_);fill-rule:evenodd;clip-rule:evenodd;fill:#FFFFFF;}
	.st155{clip-path:url(#SVGID_184_);fill-rule:evenodd;clip-rule:evenodd;fill:#36506A;}
	.st156{clip-path:url(#SVGID_186_);fill:none;stroke:#FFFFFF;stroke-width:2.475;stroke-linecap:round;stroke-linejoin:round;}
	.st157{clip-path:url(#SVGID_188_);fill:none;stroke:#FFFFFF;stroke-width:2.475;stroke-linecap:round;stroke-linejoin:round;}
	.st158{clip-path:url(#SVGID_190_);fill:#F29134;}
	.st159{clip-path:url(#SVGID_192_);fill:none;stroke:#FFFFFF;stroke-width:2.475;stroke-linecap:round;stroke-linejoin:round;}
	.st160{clip-path:url(#SVGID_194_);fill:none;stroke:#FFFFFF;stroke-width:2.475;stroke-linecap:round;stroke-linejoin:round;}
	.st161{fill:#F39435;}
	.st162{opacity:0.9;}
	.st163{clip-path:url(#SVGID_196_);fill:#F39235;}
	.st164{fill:none;stroke:#FFFFFF;}
	.st165{clip-path:url(#SVGID_198_);fill:#3F828B;}
	.st166{clip-path:url(#SVGID_198_);fill:#36506A;}
	.st167{clip-path:url(#SVGID_198_);fill:#EAF6FB;}
	.st168{clip-path:url(#SVGID_198_);}
	.st169{clip-path:url(#SVGID_200_);}
	.st170{fill:none;stroke:#F39435;stroke-width:4;}
	.st171{opacity:0.8;}
	.st172{clip-path:url(#SVGID_204_);fill:#F7AD10;}
	.st173{fill:#F7AD10;}
	.st174{clip-path:url(#SVGID_206_);fill:none;stroke:#F39435;stroke-width:3;stroke-linecap:round;stroke-linejoin:round;}
	.st175{fill:none;stroke:#F39235;}
	.st176{fill:#3F828B;}
	.st177{clip-path:url(#SVGID_208_);}
	.st178{opacity:0.35;}
	.st179{filter:url(#Adobe_OpacityMaskFilter_2_);}
	.st180{mask:url(#SVGID_209_);}
	.st181{opacity:0.75;clip-path:url(#SVGID_213_);fill:#FFFFFF;}
	.st182{filter:url(#Adobe_OpacityMaskFilter_3_);}
	.st183{mask:url(#SVGID_214_);}
	.st184{opacity:0.75;clip-path:url(#SVGID_218_);fill:#FFFFFF;}
	.st185{clip-path:url(#SVGID_220_);fill:#F39235;}
</style>
<g>
	<path class="st38" d="M62.79,33c0,17.28-14.01,31.29-31.29,31.29C14.22,64.29,0.21,50.28,0.21,33c0-17.28,14.01-31.29,31.29-31.29
		C48.78,1.71,62.79,15.72,62.79,33"/>
	<polygon class="st49" points="33.61,52.93 34.89,52.93 34.89,36.21 51.61,36.21 51.61,34.93 33.61,34.93 	"/>
	<polygon class="st49" points="11.75,36.21 28.46,36.21 28.46,52.93 29.75,52.93 29.75,34.93 11.75,34.93 	"/>
	<path class="st49" d="M14.39,18.21h0.8c0.53,1.5,1.96,2.57,3.63,2.57s3.1-1.08,3.63-2.57h0.8l-0.38,3.86h-3.4v7.71h-3.92
		L14.39,18.21z M18.82,14.36c1.42,0,2.57,1.15,2.57,2.57c0,1.42-1.15,2.57-2.57,2.57s-2.57-1.15-2.57-2.57
		C16.25,15.51,17.4,14.36,18.82,14.36 M25.89,29.79h-5.14v-6.43h5.14V29.79z M28.46,29.79h-1.29v-7.71h-3.02l0.51-5.14h-2
		c0-2.13-1.73-3.86-3.86-3.86c-2.13,0-3.86,1.73-3.86,3.86h-2l1.29,12.86h-2.5v1.29h18v-18h-1.29V29.79z"/>
	<path class="st49" d="M37.46,15.64h6.43v6.43h-2.57v7.71h-3.86V15.64z M49.03,29.79h-6.43v-6.43h6.43V29.79z M50.32,29.79v-7.71
		h-5.14v-7.71h-9v15.43h-1.29V13.07h-1.29v18h18v-1.29H50.32z"/>
	<path class="st49" d="M14.72,42.64l4.96-3.86h0.84l4.96,3.86H14.72z M24.61,49.07h-1.29v-3.86h-6.43v3.86H15.6v-5.14h9V49.07z
		 M22.03,49.07h-3.86V46.5h3.86V49.07z M19.24,37.5l-6.21,4.83v1.6h1.29v6.43h11.57v-6.43h1.29v-1.6l-6.21-4.83H19.24z"/>
	<polygon class="st49" points="18.18,18.86 19.46,18.86 19.46,17.57 20.75,17.57 20.75,16.28 19.46,16.28 19.46,15 18.18,15 
		18.18,16.28 16.89,16.28 16.89,17.57 18.18,17.57 	"/>
	<rect x="22.03" y="24.64" class="st49" width="2.57" height="1.29"/>
	<rect x="22.03" y="27.21" class="st49" width="2.57" height="1.29"/>
	<rect x="16.89" y="22.07" class="st49" width="1.29" height="1.29"/>
	<rect x="16.89" y="24.64" class="st49" width="1.29" height="1.29"/>
	<rect x="16.89" y="27.21" class="st49" width="1.29" height="1.29"/>
	<path class="st49" d="M41.32,46.5h1.39l-1.07,2.57h4.18v2.57h-4.5V46.5z M40.38,38.98c0.1-0.24,0.49-0.24,0.59,0l2.6,6.23h-5.79
		L40.38,38.98z M46.17,41.55c0.1-0.24,0.49-0.24,0.59,0l2.6,6.23h-5.79l0.54-1.29h1.39l-0.7-1.67L46.17,41.55z M47.11,49.07h4.18
		l-3.34-8.01c-0.25-0.6-0.83-0.99-1.48-0.99c-0.65,0-1.23,0.39-1.48,0.99l-0.87,2.1l-1.95-4.67c-0.25-0.6-0.83-0.99-1.48-0.99
		c-0.65,0-1.23,0.39-1.48,0.99l-3.34,8.01h4.18v5.14h-3.86v1.29h15.43v-1.29h-4.5V49.07z"/>
	<rect x="43.89" y="24.64" class="st49" width="1.29" height="1.29"/>
	<rect x="43.89" y="27.21" class="st49" width="1.29" height="1.29"/>
	<rect x="46.46" y="24.64" class="st49" width="1.29" height="1.29"/>
	<rect x="46.46" y="27.21" class="st49" width="1.29" height="1.29"/>
	<rect x="41.32" y="16.93" class="st49" width="1.29" height="1.29"/>
	<rect x="38.75" y="16.93" class="st49" width="1.29" height="1.29"/>
	<rect x="38.75" y="19.5" class="st49" width="1.29" height="1.29"/>
	<rect x="41.32" y="19.5" class="st49" width="1.29" height="1.29"/>
	<rect x="38.75" y="27.21" class="st49" width="1.29" height="1.29"/>
	<rect x="38.75" y="24.64" class="st49" width="1.29" height="1.29"/>
	<rect x="38.75" y="22.07" class="st49" width="1.29" height="1.29"/>
</g>
<g>
	<path class="st38" d="M212.79,33c0,17.28-14.01,31.29-31.29,31.29c-17.28,0-31.29-14.01-31.29-31.29
		c0-17.28,14.01-31.29,31.29-31.29C198.78,1.71,212.79,15.72,212.79,33"/>
	<path class="st49" d="M186.06,41.16h-2.17c-0.32,0-0.58,0.26-0.58,0.58s0.26,0.58,0.58,0.58h2.17c0.32,0,0.58-0.26,0.58-0.58
		S186.38,41.16,186.06,41.16"/>
	<path class="st49" d="M192.27,37.63c-0.12,0.17-0.28,0.21-0.37,0.22c-0.09,0.01-0.26,0-0.41-0.15l-1.34-1.34l3.46-3.03l0.91,0.91
		L192.27,37.63z M189.31,35.57l-3.21-2.81v-1.11c0.93,0.59,2.04,0.93,3.21,0.93s2.28-0.34,3.21-0.93v1.11L189.31,35.57z
		 M188.76,38.47l0.03-0.8l0.52-0.51l0.52,0.51l0.03,0.8H188.76z M187.12,37.7c-0.15,0.15-0.32,0.15-0.41,0.15
		c-0.09-0.01-0.26-0.05-0.37-0.22l-2.25-3.38l0.91-0.91l3.46,3.03L187.12,37.7z M184.56,27.47c-0.1-0.56-0.62-0.96-1.17-0.92
		c-0.04,0-0.09,0-0.14-0.01c-0.23-0.05-0.4-0.29-0.4-0.57v-0.42c0-0.27,0.18-0.51,0.41-0.55c0.19-0.03,0.38,0.04,0.5,0.19
		c0.11,0.14,0.25,0.24,0.41,0.29c0.24,0.07,0.5,0.03,0.7-0.11c0.36-0.26,0.68-0.57,0.95-0.93c0.19-0.26,0.14-0.62-0.12-0.81
		c-0.26-0.19-0.62-0.14-0.81,0.12c-0.13,0.18-0.28,0.34-0.45,0.49c-0.18-0.16-0.4-0.27-0.63-0.34c-0.15-0.57-0.41-1.79-0.41-3.26
		c0-0.89,0.27-1.51,0.81-1.85c0.42-0.27,0.87-0.28,0.87-0.28c0.15,0,0.29-0.06,0.4-0.16c0.01-0.01,1.44-1.33,3.88-1.47
		c2.23-0.12,3.95,0.44,4.98,1.63c1.03,1.2,1.38,3.03,1.01,5.33c-0.15-0.01-0.33,0.01-0.49,0.03l-0.54-1.31
		c-0.11-0.27-0.4-0.41-0.68-0.34c-0.05,0.01-5.4,1.37-7.64-1.42c-0.2-0.25-0.57-0.29-0.81-0.09c-0.25,0.2-0.29,0.56-0.09,0.81
		c2.29,2.85,6.83,2.23,8.34,1.93l0.42,1.01c0.18,0.43,0.64,0.67,1.1,0.56c0.19-0.04,0.37-0.05,0.43-0.03
		c0.23,0.05,0.41,0.28,0.41,0.54v0.42c0,0.27-0.17,0.52-0.4,0.57c-0.05,0.01-0.09,0.01-0.14,0.01c-0.56-0.04-1.07,0.36-1.17,0.92
		c-0.42,2.29-2.42,3.96-4.75,3.96C186.98,31.43,184.98,29.76,184.56,27.47 M198.81,34.96l-3.15-1.22l-1.61-1.61
		c-0.1-0.1-0.24-0.16-0.37-0.17v-1.28c0.76-0.81,1.3-1.83,1.52-2.98c0.14,0.01,0.27,0,0.41-0.03c0.77-0.16,1.33-0.87,1.33-1.7v-0.42
		c0-0.48-0.19-0.92-0.51-1.23c0.51-2.78,0.09-5.05-1.22-6.56c-1.27-1.47-3.32-2.17-5.92-2.03c-2.4,0.13-3.96,1.24-4.45,1.64
		c-0.27,0.03-0.73,0.13-1.19,0.4c-0.64,0.39-1.41,1.2-1.41,2.87c0,1.46,0.23,2.67,0.4,3.36c-0.57,0.27-0.94,0.87-0.94,1.55v0.42
		c0,0.83,0.56,1.54,1.33,1.7c0.14,0.03,0.27,0.04,0.41,0.03c0.22,1.15,0.76,2.18,1.52,2.98v1.28c-0.14,0.01-0.27,0.07-0.37,0.17
		l-1.61,1.61l-3.15,1.22c-0.27,0.11-0.53,0.24-0.77,0.41c-0.27,0.18-0.33,0.54-0.15,0.8c0.11,0.16,0.29,0.25,0.48,0.25
		c0.11,0,0.23-0.03,0.32-0.1c0.17-0.11,0.35-0.21,0.54-0.28l2.93-1.13l2.24,3.36c0.28,0.42,0.72,0.68,1.22,0.73
		c0.05,0.01,0.11,0.01,0.17,0.01c0.29,0,0.57-0.08,0.82-0.22l-0.48,10.89c-0.01,0.32,0.23,0.59,0.55,0.6c0.01,0,0.02,0,0.03,0
		c0.31,0,0.57-0.24,0.58-0.55l0.45-10.11h1.2l0.45,10.11c0.01,0.31,0.27,0.55,0.58,0.55c0.01,0,0.02,0,0.03,0
		c0.32-0.01,0.57-0.28,0.55-0.6l-0.48-10.89c0.25,0.14,0.53,0.22,0.81,0.22c0.05,0,0.11,0,0.17-0.01c0.5-0.05,0.94-0.32,1.22-0.73
		l2.24-3.36l2.93,1.13c0.41,0.16,0.76,0.41,1.04,0.73l-2,2c-0.72,0.72-1.12,1.68-1.12,2.71v8.23c0,0.32,0.26,0.58,0.58,0.58
		s0.58-0.26,0.58-0.58v-8.23c0-0.71,0.28-1.38,0.78-1.89l1.76-1.76c0.07,0.26,0.1,0.53,0.09,0.81l-0.45,11.05
		c-0.01,0.32,0.24,0.59,0.56,0.6c0.01,0,0.02,0,0.02,0c0.31,0,0.57-0.24,0.58-0.55l0.45-11.05
		C201.33,37.05,200.34,35.55,198.81,34.96"/>
	<path class="st49" d="M174.47,40.16l-1.55-1.32l2.4-2.4l0.89,0.89L174.47,40.16z M172.07,38.06l-2.13-2.13v-1.2
		c0.67,0.25,1.38,0.39,2.13,0.39c0.75,0,1.46-0.14,2.13-0.39v1.2L172.07,38.06z M169.66,40.16l-1.74-2.83l0.89-0.89l2.4,2.4
		L169.66,40.16z M167.31,30c-0.1-0.56-0.62-0.96-1.17-0.92c-0.05,0-0.1,0-0.15-0.01c-0.22-0.05-0.39-0.29-0.39-0.56V28.1
		c0-0.27,0.18-0.51,0.41-0.55c0.19-0.03,0.38,0.04,0.5,0.19c0.11,0.14,0.25,0.24,0.41,0.29c0.24,0.07,0.5,0.03,0.7-0.11
		c0.36-0.25,0.67-0.56,0.94-0.91c0.19-0.26,0.14-0.62-0.11-0.81c-0.26-0.19-0.62-0.14-0.81,0.12c-0.13,0.17-0.28,0.33-0.44,0.48
		c-0.25-0.21-0.55-0.35-0.87-0.39c-0.11-0.44-0.17-0.88-0.17-1.33c0-3.12,2.66-5.65,5.92-5.65c3.27,0,5.92,2.54,5.92,5.65
		c0,0.45-0.06,0.89-0.17,1.33c-0.15,0.01-0.31,0.04-0.45,0.08l-0.43-0.36c-0.22-0.18-0.49-0.27-0.77-0.25
		c-0.85,0.05-5.21,0.17-7.45-2.51c-0.2-0.24-0.57-0.28-0.82-0.07c-0.25,0.21-0.28,0.57-0.07,0.82c1.1,1.32,2.72,2.21,4.81,2.65
		c1.6,0.34,3.02,0.3,3.58,0.27l0.68,0.56c0.19,0.15,0.45,0.17,0.66,0.05c0.1-0.05,0.43-0.11,0.57-0.08
		c0.23,0.05,0.41,0.28,0.41,0.54v0.42c0,0.27-0.17,0.51-0.39,0.56c-0.05,0.01-0.1,0.02-0.15,0.01c-0.55-0.04-1.07,0.36-1.17,0.92
		c-0.42,2.29-2.42,3.96-4.75,3.96C169.73,33.96,167.73,32.3,167.31,30 M172.07,16.87c1.23,0,2.27,0.79,2.58,1.85
		c-0.8-0.3-1.67-0.47-2.58-0.47c-0.91,0-1.78,0.17-2.58,0.47C169.79,17.66,170.83,16.87,172.07,16.87 M180.1,38l-2.83-1.23
		l-1.55-1.55c-0.1-0.1-0.24-0.16-0.37-0.17v-0.91c1.32-0.87,2.29-2.25,2.6-3.89c0.15,0.01,0.31-0.01,0.46-0.04
		c0.74-0.18,1.28-0.89,1.28-1.69v-0.42c0-0.59-0.29-1.11-0.74-1.42c0.13-0.52,0.2-1.06,0.2-1.6c0-2.4-1.3-4.51-3.25-5.73
		c-0.02-2-1.73-3.62-3.83-3.62c-2.1,0-3.81,1.62-3.83,3.62c-1.96,1.21-3.25,3.33-3.25,5.73c0,0.54,0.07,1.08,0.2,1.6
		c-0.45,0.31-0.74,0.84-0.74,1.43v0.42c0,0.8,0.54,1.51,1.28,1.69c0.15,0.04,0.3,0.05,0.46,0.04c0.31,1.64,1.28,3.03,2.6,3.89v0.91
		c-0.14,0.01-0.27,0.07-0.37,0.17l-1.54,1.55L164.03,38c-1.44,0.63-2.36,2.1-2.29,3.67l0.34,8.07c0.01,0.31,0.27,0.55,0.58,0.55
		c0.01,0,0.02,0,0.03,0c0.32-0.01,0.57-0.28,0.55-0.6l-0.34-8.07c-0.02-0.52,0.11-1.02,0.37-1.46l1.52,1.82
		c0.48,0.58,0.74,1.31,0.74,2.06v5.67c0,0.32,0.26,0.58,0.58,0.58c0.32,0,0.58-0.26,0.58-0.58v-5.67c0-1.02-0.36-2.01-1.01-2.8
		l-1.62-1.94c0.14-0.1,0.28-0.18,0.44-0.25l2.46-1.07l1.74,2.83c0.17,0.28,0.46,0.47,0.78,0.52c0.06,0.01,0.12,0.01,0.17,0.01
		c0.27,0,0.52-0.09,0.73-0.27l1.1-0.94v9.58c0,0.32,0.26,0.58,0.58,0.58c0.32,0,0.58-0.26,0.58-0.58v-9.58l1.1,0.94
		c0.2,0.17,0.46,0.27,0.73,0.27c0.06,0,0.12,0,0.17-0.01c0.32-0.05,0.61-0.24,0.78-0.52l1.74-2.83l2.46,1.07
		c0.16,0.07,0.3,0.15,0.44,0.25l-1.61,1.94c-0.65,0.78-1.01,1.78-1.01,2.8v5.67c0,0.32,0.26,0.58,0.58,0.58
		c0.32,0,0.58-0.26,0.58-0.58v-5.67c0-0.75,0.27-1.48,0.75-2.06l1.52-1.82c0.25,0.44,0.39,0.94,0.37,1.46l-0.34,8.07
		c-0.01,0.32,0.23,0.59,0.55,0.6c0.01,0,0.02,0,0.02,0c0.31,0,0.57-0.24,0.58-0.55l0.34-8.07C182.46,40.1,181.54,38.62,180.1,38"/>
	<path class="st49" d="M169.9,43.71h-1.62c-0.32,0-0.58,0.26-0.58,0.58s0.26,0.58,0.58,0.58h1.62c0.32,0,0.58-0.26,0.58-0.58
		S170.22,43.71,169.9,43.71"/>
</g>
<g>
	<path class="st38" d="M137.79,33c0,17.28-14.01,31.29-31.29,31.29c-17.28,0-31.29-14.01-31.29-31.29S89.22,1.71,106.5,1.71
		C123.78,1.71,137.79,15.72,137.79,33"/>
	<path class="st49" d="M107.79,26.24v12.2l1.49-1.43l1.92,1.85l-4.7,4.52l-4.7-4.52l1.92-1.85l1.35,1.3V26.37l-1.35,1.3l-1.92-1.85
		l4.7-4.52l4.7,4.52l-1.92,1.85L107.79,26.24z M117.78,43.43c0,0.72-0.61,1.31-1.36,1.31H96.58c-0.75,0-1.36-0.59-1.36-1.31V27.3
		l11.28-9.91l11.28,9.91V43.43z M123.91,29.15L106.5,13.85L89.09,29.15l1.83,1.93l1.58-1.39v13.74c0,2.16,1.83,3.93,4.08,3.93h19.83
		c2.25,0,4.08-1.76,4.08-3.93V29.69l1.58,1.39L123.91,29.15z"/>
</g>
<g>
	<path class="st38" d="M287.79,33c0,17.28-14.01,31.29-31.29,31.29c-17.28,0-31.29-14.01-31.29-31.29S239.22,1.71,256.5,1.71
		C273.78,1.71,287.79,15.72,287.79,33"/>
	<path class="st49" d="M253.94,47.65L253.94,47.65c0-0.01,0-0.01,0-0.02c-0.01-0.08-0.02-0.16-0.03-0.24c0,0,0-0.01,0-0.01
		c-0.01-0.08-0.03-0.16-0.05-0.24c0,0,0-0.01,0-0.01c-0.02-0.08-0.04-0.15-0.06-0.23c0-0.01,0-0.02-0.01-0.02
		c-0.02-0.07-0.05-0.14-0.08-0.21c0-0.01-0.01-0.02-0.01-0.03c-0.03-0.07-0.06-0.14-0.09-0.2c-0.01-0.01-0.01-0.02-0.02-0.03
		c-0.03-0.07-0.07-0.13-0.1-0.2c-0.01-0.01-0.01-0.02-0.02-0.03c-0.04-0.07-0.08-0.13-0.12-0.19c-0.01-0.01-0.01-0.01-0.02-0.02
		c-0.04-0.06-0.09-0.13-0.14-0.19c0,0-0.01-0.01-0.01-0.01c-0.05-0.06-0.1-0.12-0.16-0.18c0,0,0,0,0,0
		c-0.05-0.06-0.11-0.11-0.17-0.17c-0.01-0.01-0.01-0.01-0.02-0.01c-0.05-0.05-0.11-0.1-0.17-0.15c-0.01-0.01-0.02-0.01-0.02-0.02
		c-0.06-0.05-0.12-0.09-0.18-0.14c-0.01-0.01-0.02-0.01-0.03-0.02c-0.06-0.04-0.12-0.08-0.19-0.12c-0.01-0.01-0.02-0.01-0.03-0.02
		c-0.06-0.04-0.13-0.07-0.2-0.11c-0.01,0-0.02-0.01-0.03-0.01c-0.07-0.03-0.14-0.07-0.21-0.1c-0.01,0-0.01-0.01-0.02-0.01
		c-0.08-0.03-0.15-0.06-0.23-0.09c0,0,0,0,0,0c0-0.01-0.01-0.01-0.01-0.02c-0.03-0.05-0.05-0.11-0.08-0.16
		c-0.02-0.03-0.03-0.05-0.05-0.08c-0.02-0.03-0.04-0.06-0.06-0.09c-0.02-0.03-0.04-0.06-0.06-0.09c-0.02-0.03-0.03-0.05-0.05-0.08
		c-0.02-0.03-0.05-0.06-0.07-0.09c-0.01-0.02-0.03-0.04-0.04-0.05c-0.05-0.07-0.11-0.13-0.17-0.2c-0.01-0.01-0.02-0.02-0.03-0.03
		c-0.03-0.03-0.06-0.06-0.09-0.09c-0.02-0.02-0.04-0.03-0.05-0.05c-0.03-0.03-0.06-0.05-0.09-0.08c-0.02-0.02-0.05-0.04-0.07-0.05
		c-0.03-0.02-0.06-0.05-0.09-0.07c-0.04-0.03-0.08-0.06-0.13-0.09c-0.01-0.01-0.02-0.02-0.03-0.02c0.48-0.82,1.36-1.35,2.34-1.35
		c0.06,0,0.12,0,0.2,0.01c0.28,0.02,0.55-0.14,0.66-0.41c0.4-0.97,1.34-1.6,2.38-1.6c1.34,0,2.47,1.06,2.58,2.41
		c0.03,0.33,0.28,0.59,0.61,0.61c1.01,0.08,1.88,0.75,2.23,1.71c0.08,0.22,0.26,0.38,0.48,0.43c1.22,0.27,2.12,1.33,2.23,2.57
		H253.94z M239.18,47.65c0.32-0.81,0.98-1.46,1.83-1.74c0.26-0.09,0.45-0.33,0.46-0.62c0.03-1.14,0.94-2.04,2.08-2.04
		c0.04,0,0.09,0,0.16,0.01c0.28,0.02,0.55-0.14,0.66-0.41c0.31-0.74,1.02-1.22,1.82-1.22c1.02,0,1.88,0.81,1.96,1.83
		c0.03,0.33,0.28,0.59,0.61,0.61c0.18,0.01,0.35,0.05,0.52,0.11c0,0,0,0,0,0c0.03,0.01,0.06,0.02,0.09,0.04
		c0.01,0,0.01,0.01,0.02,0.01c0.03,0.01,0.05,0.02,0.08,0.04c0.01,0,0.02,0.01,0.03,0.01c0.04,0.02,0.07,0.04,0.11,0.06
		c0.02,0.01,0.04,0.02,0.06,0.04c0.02,0.01,0.03,0.02,0.04,0.03c0.02,0.01,0.04,0.03,0.06,0.05c0.01,0.01,0.02,0.02,0.04,0.03
		c0.02,0.02,0.05,0.04,0.08,0.06c0.01,0.01,0.01,0.01,0.02,0.02c0.07,0.06,0.13,0.12,0.18,0.19c0.01,0.01,0.01,0.01,0.02,0.02
		c0.02,0.03,0.05,0.06,0.07,0.09c0,0.01,0.01,0.01,0.01,0.02c0.05,0.07,0.1,0.15,0.14,0.22c0.01,0.01,0.01,0.02,0.02,0.03
		c0.02,0.03,0.03,0.06,0.04,0.09c0.01,0.01,0.01,0.02,0.02,0.03c0.02,0.04,0.03,0.08,0.05,0.12c0,0,0,0,0,0
		c0.08,0.22,0.26,0.38,0.48,0.43c0.06,0.01,0.12,0.03,0.17,0.05c0.02,0.01,0.04,0.01,0.05,0.02c0.04,0.01,0.08,0.03,0.11,0.04
		c0.02,0.01,0.04,0.02,0.06,0.03c0.03,0.01,0.07,0.03,0.1,0.05c0.02,0.01,0.04,0.02,0.06,0.03c0.03,0.02,0.06,0.03,0.09,0.05
		c0.02,0.01,0.04,0.03,0.06,0.04c0.03,0.02,0.06,0.04,0.08,0.06c0.02,0.01,0.04,0.03,0.06,0.04c0.03,0.02,0.05,0.04,0.08,0.07
		c0.02,0.01,0.03,0.03,0.05,0.05c0.03,0.02,0.05,0.05,0.08,0.08c0.02,0.02,0.03,0.03,0.04,0.05c0.03,0.03,0.06,0.06,0.08,0.1
		c0.01,0.01,0.02,0.02,0.03,0.04c0.04,0.04,0.07,0.09,0.1,0.14c0.01,0.01,0.01,0.02,0.02,0.03c0.03,0.04,0.05,0.08,0.07,0.12
		c0.01,0.02,0.02,0.04,0.03,0.05c0.02,0.03,0.03,0.07,0.05,0.1c0.01,0.02,0.02,0.04,0.03,0.07c0.01,0.03,0.03,0.07,0.04,0.1
		c0.01,0.02,0.02,0.05,0.02,0.07c0.01,0.03,0.02,0.07,0.03,0.1c0.01,0.02,0.01,0.05,0.02,0.07c0.01,0.03,0.02,0.07,0.02,0.1
		c0.01,0.02,0.01,0.05,0.01,0.07c0,0.01,0,0.02,0,0.03H239.18z M275.68,47.65h-8.56v-4.1c1.87-0.25,3.53-1.43,4.49-3.22
		c1.28-0.29,2.44-1.04,3.3-2.13c0.93-1.18,1.45-2.69,1.45-4.26c0-2.38-1.2-4.58-3.1-5.72c-0.2-3.96-3.22-7.12-6.9-7.12
		c-1.16,0-2.31,0.32-3.32,0.92c-0.31,0.19-0.42,0.6-0.23,0.91c0.19,0.32,0.59,0.42,0.91,0.24c0.81-0.48,1.72-0.74,2.64-0.74
		c3.08,0,5.59,2.78,5.59,6.19c0,0.25,0.14,0.48,0.36,0.6c1.66,0.85,2.73,2.7,2.73,4.72c0,2.55-1.71,4.76-3.98,5.14
		c-0.21,0.04-0.39,0.17-0.49,0.37c-0.71,1.49-1.99,2.49-3.45,2.75v-5.91l3.25-3.02c0.27-0.25,0.29-0.67,0.04-0.94
		c-0.25-0.27-0.67-0.29-0.93-0.04l-2.36,2.19v-4.46c0-0.37-0.3-0.67-0.66-0.67s-0.66,0.3-0.66,0.67v8.09l-2.36-2.19
		c-0.27-0.25-0.69-0.23-0.93,0.04c-0.25,0.27-0.23,0.69,0.04,0.94l3.25,3.02v2.32c-1.56-0.2-2.93-1.25-3.67-2.82
		c-0.09-0.19-0.26-0.33-0.46-0.37c-2.19-0.47-3.79-2.62-3.79-5.1c0-1.96,0.98-3.73,2.55-4.63c0.21-0.12,0.34-0.35,0.34-0.59
		c0-0.02,0-0.04,0-0.06c0-0.01,0-0.02,0-0.03c0-1.39,0.41-2.71,1.17-3.8c0.21-0.3,0.14-0.72-0.16-0.93
		c-0.3-0.21-0.71-0.14-0.92,0.16c-0.88,1.25-1.36,2.73-1.41,4.29c-1.79,1.18-2.89,3.29-2.89,5.59c0,2.99,1.88,5.6,4.52,6.33
		c0.99,1.89,2.75,3.11,4.72,3.31v4.08h-0.42c-0.1-1.75-1.28-3.27-2.93-3.78c-0.52-1.11-1.52-1.92-2.7-2.18
		c-0.39-1.78-1.97-3.1-3.82-3.1c-1.42,0-2.71,0.77-3.4,2c-1.36,0.05-2.57,0.78-3.27,1.92c-0.44-1.21-1.55-2.1-2.86-2.19v-1.76
		c1.78-0.25,3.36-1.38,4.29-3.08c1.23-0.29,2.34-1.01,3.17-2.05c0.9-1.14,1.39-2.59,1.39-4.09c0-2.28-1.15-4.39-2.97-5.49
		c-0.2-3.8-3.1-6.83-6.64-6.83c-1.36,0-2.66,0.44-3.77,1.28c-0.29,0.22-0.35,0.64-0.14,0.93c0.22,0.3,0.63,0.36,0.93,0.14
		c0.88-0.66,1.91-1.01,2.98-1.01c2.93,0,5.32,2.65,5.32,5.9c0,0.25,0.14,0.48,0.36,0.6c1.58,0.81,2.59,2.57,2.59,4.5
		c0,2.43-1.63,4.53-3.79,4.89c-0.21,0.04-0.39,0.17-0.49,0.37c-0.67,1.4-1.88,2.36-3.25,2.62V31.6l3.11-2.89
		c0.27-0.25,0.29-0.67,0.04-0.94c-0.25-0.27-0.66-0.29-0.93-0.04l-2.21,2.06v-4.21c0-0.37-0.3-0.67-0.66-0.67
		c-0.37,0-0.66,0.3-0.66,0.67v7.68l-2.21-2.06c-0.27-0.25-0.69-0.23-0.93,0.04c-0.25,0.27-0.23,0.7,0.04,0.94l3.11,2.89v2.17
		c-1.47-0.2-2.76-1.19-3.46-2.68c-0.09-0.19-0.26-0.32-0.46-0.37c-2.09-0.45-3.6-2.49-3.6-4.86c0-1.87,0.93-3.55,2.43-4.41
		c0.21-0.12,0.34-0.35,0.34-0.59c0-0.02,0-0.04,0-0.05c0-0.01,0-0.02,0-0.03c0-0.83,0.15-1.63,0.45-2.38
		c0.09-0.22,0.19-0.44,0.3-0.65c0.17-0.32,0.06-0.73-0.26-0.91c-0.32-0.18-0.72-0.06-0.9,0.27c-0.14,0.26-0.26,0.52-0.37,0.79
		c-0.33,0.82-0.51,1.69-0.54,2.59c-1.72,1.14-2.77,3.16-2.77,5.37c0,2.88,1.8,5.38,4.33,6.09c0.95,1.8,2.63,2.97,4.51,3.17v1.91
		c-0.72,0.26-1.34,0.76-1.74,1.44c-1.61,0.09-2.9,1.29-3.15,2.87c-1.18,0.53-2.06,1.59-2.39,2.85h-0.9c-0.36,0-0.66,0.3-0.66,0.67
		c0,0.37,0.3,0.67,0.66,0.67h1.45h14.93h11.43h10.98c0.36,0,0.66-0.3,0.66-0.67C276.34,47.95,276.05,47.65,275.68,47.65"/>
</g>
<g>
	<path class="st38" d="M362.79,33c0,17.28-14.01,31.29-31.29,31.29c-17.28,0-31.29-14.01-31.29-31.29S314.22,1.71,331.5,1.71
		C348.78,1.71,362.79,15.72,362.79,33"/>
	<path class="st49" d="M310.64,32.39c0.16-0.26,0.45-0.42,0.75-0.42c0.36,0,0.68,0.22,0.82,0.55l1.68,3.99
		c0.45,1.07,1.09,2.03,1.89,2.85l3.43,3.5c0.19,0.2,0.47,0.28,0.73,0.21c0.26-0.07,0.47-0.28,0.54-0.55
		c0.07-0.27-0.01-0.55-0.2-0.74l-3.43-3.5c-0.34-0.35-0.65-0.74-0.92-1.15c0.72-0.57,1.73-0.55,2.43,0.04
		c1.4,1.31,3.02,2.36,4.79,3.09c0.72,0.27,1.34,0.74,1.8,1.37c0.88,1.16,1.34,2.59,1.32,4.06v1.43h-6.2l-5.21-5.31
		c-0.55-0.56-1-1.22-1.32-1.95l-2.94-6.6C310.45,32.98,310.47,32.65,310.64,32.39 M327.75,54.78h-8.25v-6.13h8.25V54.78z
		 M312.15,40.49c0.4,0.89,0.95,1.71,1.63,2.4l4.62,4.72c-0.26,0.28-0.41,0.65-0.41,1.04v6.13c0,0.85,0.67,1.53,1.5,1.53h8.25
		c0.83,0,1.5-0.68,1.5-1.53v-6.13c0-0.85-0.67-1.53-1.5-1.53V45.7c0.02-1.81-0.56-3.58-1.64-5.02c-0.64-0.86-1.51-1.5-2.5-1.86
		c-1.58-0.68-3.03-1.63-4.29-2.81c-1.17-0.99-2.84-1.08-4.11-0.23l-1.62-3.86c-0.35-0.8-1.08-1.35-1.93-1.44
		c-0.85-0.09-1.68,0.28-2.19,0.99c-0.51,0.7-0.6,1.63-0.26,2.43L312.15,40.49z"/>
	<path class="st49" d="M325.5,50.95h-0.75c-0.42,0-0.75,0.34-0.75,0.77s0.33,0.77,0.75,0.77h0.75c0.41,0,0.75-0.34,0.75-0.77
		S325.91,50.95,325.5,50.95"/>
	<path class="st49" d="M347.09,37.14c-0.27,0.41-0.58,0.8-0.92,1.15l-3.43,3.5c-0.28,0.3-0.28,0.78,0.01,1.07
		c0.29,0.3,0.76,0.3,1.05,0.01l3.43-3.5c0.8-0.82,1.45-1.79,1.89-2.85l1.68-4c0.14-0.33,0.46-0.55,0.82-0.55
		c0.3,0,0.59,0.16,0.75,0.42s0.19,0.59,0.06,0.87l-2.94,6.6c-0.32,0.73-0.77,1.39-1.32,1.95l-5.21,5.31h-6.2V45.7
		c-0.02-1.47,0.44-2.9,1.32-4.06c0.46-0.62,1.08-1.1,1.8-1.37c1.76-0.73,3.38-1.78,4.79-3.09
		C345.36,36.59,346.37,36.57,347.09,37.14 M343.5,54.78h-8.25v-6.13h8.25V54.78z M339.4,38.82c-0.99,0.36-1.86,1.01-2.5,1.86
		c-1.09,1.43-1.67,3.2-1.64,5.01v1.43c-0.83,0-1.5,0.68-1.5,1.53v6.13c0,0.85,0.67,1.53,1.5,1.53h8.25c0.83,0,1.5-0.69,1.5-1.53
		v-6.13c0-0.39-0.15-0.76-0.41-1.04l4.62-4.72c0.68-0.69,1.23-1.51,1.63-2.4l2.94-6.6c0.35-0.8,0.25-1.72-0.26-2.43
		c-0.5-0.7-1.34-1.08-2.19-0.99c-0.85,0.09-1.59,0.64-1.93,1.44l-1.62,3.85c-1.27-0.85-2.93-0.76-4.1,0.23
		C342.43,37.19,340.98,38.14,339.4,38.82"/>
	<path class="st49" d="M338.25,50.95h-0.75c-0.42,0-0.75,0.34-0.75,0.77s0.33,0.77,0.75,0.77h0.75c0.41,0,0.75-0.34,0.75-0.77
		S338.67,50.95,338.25,50.95"/>
	<path class="st49" d="M320.25,20.71l11.25-8.62l11.25,8.62v1.91l-10.8-8.27c-0.27-0.2-0.63-0.2-0.9,0l-10.8,8.27V20.71z
		 M322.5,13.43h1.5v2.49l-1.5,1.15V13.43z M340.5,34.87H336v-6.13c0-2.54-2.02-4.59-4.5-4.59c-2.49,0-4.5,2.06-4.5,4.59v6.13h-4.5
		V22.81l9-6.89l9,6.89V34.87z M328.5,34.87v-6.13c0-1.69,1.34-3.06,3-3.06c1.66,0,3,1.37,3,3.06v6.13H328.5z M319.16,24.84
		c0.25,0.13,0.56,0.1,0.78-0.08l1.05-0.8v10.91c0,0.85,0.67,1.53,1.5,1.53h18.01c0.83,0,1.5-0.68,1.5-1.53V23.96l1.05,0.8
		c0.23,0.17,0.53,0.2,0.79,0.07c0.25-0.13,0.41-0.39,0.41-0.68v-3.83c0-0.24-0.11-0.47-0.3-0.61l-12-9.19c-0.27-0.2-0.63-0.2-0.9,0
		l-5.55,4.25v-1.34c0-0.85-0.67-1.53-1.5-1.53h-1.5c-0.83,0-1.5,0.69-1.5,1.53v4.79l-1.95,1.49c-0.19,0.15-0.3,0.37-0.3,0.61v3.83
		C318.74,24.44,318.9,24.71,319.16,24.84"/>
</g>
<g>
	<path class="st38" d="M437.65,33c0,17.28-14.01,31.29-31.29,31.29S375.06,50.28,375.06,33c0-17.28,14.01-31.29,31.29-31.29
		S437.65,15.72,437.65,33"/>
	<path class="st49" d="M407.42,42.32h2.67v6.67h-2.67V42.32z M403.42,42.32h2.67v6.67h-2.67V42.32z M401.41,23.64h10.68v25.36h-0.67
		v-7.34c0-0.37-0.3-0.67-0.67-0.67h-8.01c-0.37,0-0.67,0.3-0.67,0.67v7.34h-0.67V23.64z M402.75,20.97h8.01v1.33h-8.01V20.97z
		 M421.43,32.31v16.67l-8.01-0.14V32.31H421.43z M390.74,40.98c0-1.21,0.66-2.33,1.72-2.92c0.32-0.18,0.44-0.58,0.26-0.91
		c-0.03-0.05-0.06-0.09-0.1-0.14c-0.76-0.8-0.72-2.07,0.08-2.83c0.8-0.76,2.07-0.72,2.83,0.08c0.73,0.77,0.73,1.98,0,2.75
		c-0.25,0.27-0.24,0.69,0.03,0.94c0.04,0.04,0.09,0.07,0.14,0.1c1.61,0.89,2.2,2.92,1.3,4.54c-0.47,0.85-1.29,1.46-2.25,1.65v-2.6
		c0-0.37-0.3-0.67-0.67-0.67c-0.37,0-0.67,0.3-0.67,0.67v2.6C391.86,43.94,390.74,42.57,390.74,40.98 M425.44,48.99h-2.67V31.64
		c0-0.37-0.3-0.67-0.67-0.67h-8.67v-8.01c0-0.37-0.3-0.67-0.67-0.67h-0.67v-2c0-0.37-0.3-0.67-0.67-0.67h-9.34
		c-0.37,0-0.67,0.3-0.67,0.67v2h-0.67c-0.37,0-0.67,0.3-0.67,0.67v26.02h-5.34v-3.39c2.55-0.37,4.32-2.74,3.96-5.29
		c-0.17-1.19-0.79-2.26-1.73-3c0.92-1.6,0.37-3.64-1.22-4.56c-1.6-0.92-3.64-0.37-4.56,1.22c-0.59,1.03-0.59,2.3,0,3.33
		c-2.03,1.6-2.37,4.53-0.78,6.56c0.74,0.94,1.82,1.56,3,1.73v0.97l-1.7-0.85c-0.33-0.17-0.73-0.04-0.9,0.29
		c-0.17,0.33-0.04,0.73,0.29,0.9c0,0,0.01,0,0.01,0.01l2.3,1.15v0.92h-5.34c-0.37,0-0.67,0.3-0.67,0.67c0,0.37,0.3,0.67,0.67,0.67
		h37.37c0.37,0,0.67-0.3,0.67-0.67C426.1,49.29,425.81,48.99,425.44,48.99"/>
	<path class="st49" d="M428.11,48.99h-0.67c-0.37,0-0.67,0.3-0.67,0.67c0,0.37,0.3,0.67,0.67,0.67h0.67c0.37,0,0.67-0.3,0.67-0.67
		C428.77,49.29,428.48,48.99,428.11,48.99"/>
	<path class="st49" d="M403.42,36.31h2.67v2h-2.67V36.31z M410.09,38.32h-2.67v-2h2.67V38.32z M402.75,39.65h8.01
		c0.37,0,0.67-0.3,0.67-0.67v-3.34c0-0.37-0.3-0.67-0.67-0.67h-8.01c-0.37,0-0.67,0.3-0.67,0.67v3.34
		C402.08,39.35,402.38,39.65,402.75,39.65"/>
	<path class="st49" d="M394.08,40.32c0.37,0,0.67-0.3,0.67-0.67v-0.67c0-0.37-0.3-0.67-0.67-0.67c-0.37,0-0.67,0.3-0.67,0.67v0.67
		C393.41,40.02,393.71,40.32,394.08,40.32"/>
	<path class="st49" d="M389.6,18.49c0.13-0.13,0.3-0.2,0.47-0.2h0.45c0.37,0,0.67-0.3,0.67-0.67c0-1.11,0.9-2,2-2c1.11,0,2,0.9,2,2
		c0,0.37,0.3,0.67,0.67,0.67h2.23c0.37,0,0.67,0.3,0.67,0.67c0,0.37-0.3,0.67-0.67,0.67h-8.01c-0.37,0-0.67-0.3-0.67-0.67
		C389.4,18.79,389.47,18.62,389.6,18.49 M390.07,20.97h8.01c1.1,0,2-0.9,2-2c0-1.11-0.9-2-2-2h-1.62c-0.37-1.81-2.13-2.97-3.94-2.6
		c-1.31,0.27-2.34,1.29-2.6,2.61c-1.1,0.09-1.93,1.05-1.84,2.15C388.15,20.16,389.02,20.97,390.07,20.97"/>
	<path class="st49" d="M427.15,25.34c-0.19,0.19-0.44,0.29-0.71,0.29h-10.01c-0.55,0-1-0.45-1-1c0-0.55,0.45-1,1-1h0.56
		c0.37,0,0.67-0.3,0.67-0.67c0-1.47,1.19-2.67,2.67-2.67c1.47,0,2.67,1.19,2.67,2.67c0,0.37,0.3,0.67,0.67,0.67h2.78
		c0.55,0,1,0.45,1,1C427.44,24.9,427.33,25.16,427.15,25.34 M428.77,24.64c0-1.29-1.05-2.33-2.34-2.34h-2.17
		c-0.37-2.18-2.44-3.65-4.62-3.28c-1.68,0.28-3,1.6-3.28,3.28c-1.29,0.03-2.31,1.1-2.28,2.39c0.03,1.27,1.07,2.28,2.33,2.28h10.01
		C427.73,26.97,428.77,25.93,428.77,24.64"/>
	<path class="st49" d="M403.42,30.98h2.67v2h-2.67V30.98z M410.09,32.98h-2.67v-2h2.67V32.98z M402.75,34.31h8.01
		c0.37,0,0.67-0.3,0.67-0.67v-3.34c0-0.37-0.3-0.67-0.67-0.67h-8.01c-0.37,0-0.67,0.3-0.67,0.67v3.34
		C402.08,34.01,402.38,34.31,402.75,34.31"/>
	<path class="st49" d="M403.42,25.64h2.67v2h-2.67V25.64z M410.09,27.64h-2.67v-2h2.67V27.64z M402.75,28.97h8.01
		c0.37,0,0.67-0.3,0.67-0.67v-3.34c0-0.37-0.3-0.67-0.67-0.67h-8.01c-0.37,0-0.67,0.3-0.67,0.67v3.34
		C402.08,28.68,402.38,28.97,402.75,28.97"/>
	<path class="st49" d="M415.43,34.31h4v2h-4V34.31z M414.76,37.65h5.34c0.37,0,0.67-0.3,0.67-0.67v-3.34c0-0.37-0.3-0.67-0.67-0.67
		h-5.34c-0.37,0-0.67,0.3-0.67,0.67v3.34C414.09,37.35,414.39,37.65,414.76,37.65"/>
	<path class="st49" d="M415.43,39.65h4v2h-4V39.65z M414.76,42.99h5.34c0.37,0,0.67-0.3,0.67-0.67v-3.34c0-0.37-0.3-0.67-0.67-0.67
		h-5.34c-0.37,0-0.67,0.3-0.67,0.67v3.34C414.09,42.69,414.39,42.99,414.76,42.99"/>
</g>
<g>
	<path class="st38" d="M512.8,33c0,17.28-14.01,31.29-31.29,31.29c-17.28,0-31.29-14.01-31.29-31.29s14.01-31.29,31.29-31.29
		C498.79,1.71,512.8,15.72,512.8,33"/>
	<path class="st49" d="M482.85,46.3v-3.94c0-0.74-0.6-1.34-1.34-1.34h-3.94v-3.94c0-0.74-0.6-1.34-1.34-1.34h-3.94v-3.94
		c0-0.74-0.6-1.34-1.34-1.34h-3.94v-0.67l14.52-12.1l8.98,7.48h-3.69c-0.74,0-1.34,0.6-1.34,1.34v7.93c0,0.74,0.6,1.34,1.34,1.34
		h9.23V46.3H482.85z M466.99,33.13h2.6v3.94c0,0.74,0.6,1.35,1.34,1.35h3.94v3.94c0,0.74,0.6,1.34,1.34,1.34h3.94v2.6h-13.17V33.13z
		 M496.03,33.08h-7.89v-5.24h5.57l2.31,1.93V33.08z M498.23,28.11c-0.48-0.4-15.01-12.51-15.86-13.22c-0.5-0.41-1.22-0.41-1.72,0
		l-15.86,13.22c-0.31,0.26-0.48,0.63-0.48,1.03v18.51c0,0.74,0.6,1.34,1.34,1.34h31.73c0.74,0,1.34-0.6,1.34-1.34V29.14
		C498.72,28.74,498.54,28.36,498.23,28.11"/>
</g>
</svg>
